{"title":"Why This Kolaveri Di - Video Song ( Good Quality)","uid":7149787,"size":30882484,"categoryP":"video","categoryS":"music_videos","magnet":"?xt=urn:btih:c43b866e698feca1040c551e58232abdc9f88609&amp;dn=Why+This+Kolaveri+Di+-+Video+Song+%28+Good+Quality%29&amp;tr=udp%3A%2F%2Ftracker.openbittorrent.com%3A80&amp;tr=udp%3A%2F%2Fopen.demonii.com%3A1337&amp;tr=udp%3A%2F%2Ftracker.coppersurfer.tk%3A6969&amp;tr=udp%3A%2F%2Fexodus.desync.com%3A6969","seeders":1,"leechers":0,"uploader":"pirate0610","files":-1,"time":1333275421,"description":"Why This Kolaveri Di - Video Song ( Good Quality)\n\n\nVideo\nBit rate : 1 002 Kbps\nWidth : 650 pixels\nHeight : 350 pixels\nFrame rate mode : Constant\nFrame rate : 24.000 fps\nBits/(Pixel*Frame) : 0.184\nStream size : 26.7 MiB (94%)\n\nAudio\nFormat : AAC\nCodec ID : 40\nDuration : 3mn 43s\nBit rate : 64.0 Kbps\nChannel(s) : 2 channels\nChannel positions : Front: L R\nSampling rate : 44.1 KHz\nStream size : 1.70 MiB (6%)\n\n\nScreens\n &lt;a href=&quot;\nhttp://www.shotpix.com/images/89232984853840774206.jpg&quot; rel=&quot;nofollow&quot; target=&quot;_NEW&quot;&gt;\nhttp://www.shotpix.com/images/89232984853840774206.jpg&lt;/a&gt; &lt;a href=&quot;\nhttp://www.shotpix.com/images/93270200593445538872.jpg&quot; rel=&quot;nofollow&quot; target=&quot;_NEW&quot;&gt;\nhttp://www.shotpix.com/images/93270200593445538872.jpg&lt;/a&gt; &lt;a href=&quot;\nhttp://www.shotpix.com/images/63082466178082776566.jpg&quot; rel=&quot;nofollow&quot; target=&quot;_NEW&quot;&gt;\nhttp://www.shotpix.com/images/63082466178082776566.jpg&lt;/a&gt; &lt;a href=&quot;\nhttp://www.shotpix.com/images/75230778490070323048.jpg&quot; rel=&quot;nofollow&quot; target=&quot;_NEW&quot;&gt;\nhttp://www.shotpix.com/images/75230778490070323048.jpg&lt;/a&gt; &lt;a href=&quot;\nhttp://www.shotpix.com/images/45853395072292257086.jpg&quot; rel=&quot;nofollow&quot; target=&quot;_NEW&quot;&gt;\nhttp://www.shotpix.com/images/45853395072292257086.jpg&lt;/a&gt; &lt;a href=&quot;\nhttp://www.shotpix.com/images/55434887886464804498.jpg&quot; rel=&quot;nofollow&quot; target=&quot;_NEW&quot;&gt;\nhttp://www.shotpix.com/images/55434887886464804498.jpg&lt;/a&gt; &lt;a href=&quot;\nhttp://www.shotpix.com/images/60523890506275569321.jpg&quot; rel=&quot;nofollow&quot; target=&quot;_NEW&quot;&gt;\nhttp://www.shotpix.com/images/60523890506275569321.jpg&lt;/a&gt; &lt;a href=&quot;\nhttp://www.shotpix.com/images/14743397731763273530.jpg&quot; rel=&quot;nofollow&quot; target=&quot;_NEW&quot;&gt;\nhttp://www.shotpix.com/images/14743397731763273530.jpg&lt;/a&gt; &lt;a href=&quot;\nhttp://www.shotpix.com/images/33876734644976715996.jpg&quot; rel=&quot;nofollow&quot; target=&quot;_NEW&quot;&gt;\nhttp://www.shotpix.com/images/33876734644976715996.jpg&lt;/a&gt;","torrent":{"xt":"urn:btih:c43b866e698feca1040c551e58232abdc9f88609","amp;dn":"Why+This+Kolaveri+Di+-+Video+Song+%28+Good+Quality%29","amp;tr":["udp%3A%2F%2Ftracker.openbittorrent.com%3A80","udp%3A%2F%2Fopen.demonii.com%3A1337","udp%3A%2F%2Ftracker.coppersurfer.tk%3A6969","udp%3A%2F%2Fexodus.desync.com%3A6969"],"infoHash":"c43b866e698feca1040c551e58232abdc9f88609","infoHashBuffer":{"type":"Buffer","data":[196,59,134,110,105,143,236,161,4,12,85,30,88,35,42,189,201,248,134,9]},"announce":[],"urlList":[]}}